<mxfile host="Electron" modified="2023-08-03T16:07:18.343Z" agent="Mozilla/5.0 (Windows NT 10.0; Win64; x64) AppleWebKit/537.36 (KHTML, like Gecko) draw.io/21.6.5 Chrome/114.0.5735.243 Electron/25.3.1 Safari/537.36" etag="a_3kmhPVqjKqQsjfT5pj" version="21.6.5" type="device">
  <diagram name="Page-1" id="97916047-d0de-89f5-080d-49f4d83e522f">
    <mxGraphModel dx="1183" dy="727" grid="1" gridSize="10" guides="1" tooltips="1" connect="1" arrows="1" fold="1" page="1" pageScale="1.5" pageWidth="1169" pageHeight="827" background="none" math="0" shadow="0">
      <root>
        <mxCell id="0" />
        <mxCell id="1" parent="0" />
        <mxCell id="LJXxhSKl086jSTLtDfIf-61" style="edgeStyle=elbowEdgeStyle;orthogonalLoop=1;jettySize=auto;html=1;entryX=0.5;entryY=0;entryDx=0;entryDy=0;fontSize=12;startSize=8;endSize=8;exitX=0.5;exitY=1;exitDx=0;exitDy=0;strokeWidth=4;elbow=vertical;strokeColor=#23445d;rounded=1;" edge="1" parent="1" source="2" target="LJXxhSKl086jSTLtDfIf-55">
          <mxGeometry relative="1" as="geometry" />
        </mxCell>
        <mxCell id="LJXxhSKl086jSTLtDfIf-62" style="edgeStyle=elbowEdgeStyle;orthogonalLoop=1;jettySize=auto;html=1;entryX=0.5;entryY=0;entryDx=0;entryDy=0;fontSize=12;startSize=8;endSize=8;exitX=0.5;exitY=1;exitDx=0;exitDy=0;rounded=1;elbow=vertical;strokeWidth=4;strokeColor=#23445d;" edge="1" parent="1" source="2" target="LJXxhSKl086jSTLtDfIf-56">
          <mxGeometry relative="1" as="geometry" />
        </mxCell>
        <mxCell id="2" value="&lt;App /&gt;" style="rounded=1;fillColor=#10739E;strokeColor=none;shadow=1;gradientColor=none;fontStyle=1;fontColor=#FFFFFF;fontSize=14;" parent="1" vertex="1">
          <mxGeometry x="672" y="205.5" width="200" height="60" as="geometry" />
        </mxCell>
        <mxCell id="LJXxhSKl086jSTLtDfIf-59" style="edgeStyle=elbowEdgeStyle;orthogonalLoop=1;jettySize=auto;html=1;entryX=0.5;entryY=0;entryDx=0;entryDy=0;fontSize=12;startSize=8;endSize=8;rounded=1;elbow=vertical;strokeWidth=4;strokeColor=#23445d;" edge="1" parent="1" source="3" target="LJXxhSKl086jSTLtDfIf-57">
          <mxGeometry relative="1" as="geometry" />
        </mxCell>
        <mxCell id="3" value="&lt;Menu /&gt;" style="rounded=1;fillColor=#10739E;strokeColor=none;shadow=1;gradientColor=none;fontStyle=1;fontColor=#FFFFFF;fontSize=14;" parent="1" vertex="1">
          <mxGeometry x="662" y="345.5" width="220" height="60" as="geometry" />
        </mxCell>
        <mxCell id="29" value="" style="edgeStyle=elbowEdgeStyle;elbow=vertical;strokeWidth=4;endArrow=block;endFill=1;fontStyle=1;strokeColor=#23445d;rounded=1;" parent="1" source="2" target="3" edge="1">
          <mxGeometry x="22" y="165.5" width="100" height="100" as="geometry">
            <mxPoint x="22" y="265.5" as="sourcePoint" />
            <mxPoint x="122" y="165.5" as="targetPoint" />
          </mxGeometry>
        </mxCell>
        <mxCell id="LJXxhSKl086jSTLtDfIf-55" value="&lt;Header /&gt;" style="rounded=1;fillColor=#10739E;strokeColor=none;shadow=1;gradientColor=none;fontStyle=1;fontColor=#FFFFFF;fontSize=14;" vertex="1" parent="1">
          <mxGeometry x="360" y="345.5" width="220" height="60" as="geometry" />
        </mxCell>
        <mxCell id="LJXxhSKl086jSTLtDfIf-64" style="edgeStyle=elbowEdgeStyle;orthogonalLoop=1;jettySize=auto;html=1;entryX=0.5;entryY=0;entryDx=0;entryDy=0;fontSize=12;startSize=8;endSize=8;rounded=1;elbow=vertical;strokeWidth=4;strokeColor=#23445d;" edge="1" parent="1" source="LJXxhSKl086jSTLtDfIf-56" target="LJXxhSKl086jSTLtDfIf-63">
          <mxGeometry relative="1" as="geometry" />
        </mxCell>
        <mxCell id="LJXxhSKl086jSTLtDfIf-56" value="&lt;Footer /&gt;" style="rounded=1;fillColor=#10739E;strokeColor=none;shadow=1;gradientColor=none;fontStyle=1;fontColor=#FFFFFF;fontSize=14;" vertex="1" parent="1">
          <mxGeometry x="960" y="345.5" width="220" height="60" as="geometry" />
        </mxCell>
        <mxCell id="LJXxhSKl086jSTLtDfIf-60" style="edgeStyle=elbowEdgeStyle;orthogonalLoop=1;jettySize=auto;html=1;entryX=0.5;entryY=0;entryDx=0;entryDy=0;fontSize=12;startSize=8;endSize=8;rounded=1;elbow=vertical;strokeWidth=4;strokeColor=#23445d;" edge="1" parent="1" source="LJXxhSKl086jSTLtDfIf-57" target="LJXxhSKl086jSTLtDfIf-58">
          <mxGeometry relative="1" as="geometry" />
        </mxCell>
        <mxCell id="LJXxhSKl086jSTLtDfIf-57" value="&lt;Pizzas /&gt;" style="rounded=1;fillColor=#10739E;strokeColor=none;shadow=1;gradientColor=none;fontStyle=1;fontColor=#FFFFFF;fontSize=14;" vertex="1" parent="1">
          <mxGeometry x="662" y="460" width="220" height="60" as="geometry" />
        </mxCell>
        <mxCell id="LJXxhSKl086jSTLtDfIf-58" value="&lt;Pizza /&gt;" style="rounded=1;fillColor=#10739E;strokeColor=none;shadow=1;gradientColor=none;fontStyle=1;fontColor=#FFFFFF;fontSize=14;" vertex="1" parent="1">
          <mxGeometry x="662" y="580" width="220" height="60" as="geometry" />
        </mxCell>
        <mxCell id="LJXxhSKl086jSTLtDfIf-63" value="&lt;Order /&gt;" style="rounded=1;fillColor=#10739E;strokeColor=none;shadow=1;gradientColor=none;fontStyle=1;fontColor=#FFFFFF;fontSize=14;" vertex="1" parent="1">
          <mxGeometry x="960" y="460" width="220" height="60" as="geometry" />
        </mxCell>
      </root>
    </mxGraphModel>
  </diagram>
</mxfile>
